<mxfile host="65bd71144e">
    <diagram id="0TYf5_RnN0_6HcQVjZtE" name="第 1 页">
        <mxGraphModel dx="880" dy="648" grid="1" gridSize="10" guides="1" tooltips="1" connect="1" arrows="1" fold="1" page="1" pageScale="1" pageWidth="1654" pageHeight="2336" math="0" shadow="0">
            <root>
                <mxCell id="0"/>
                <mxCell id="1" parent="0"/>
            </root>
        </mxGraphModel>
    </diagram>
</mxfile>